Coordinates
version=1
nRows=6
nColumns=34
inDegrees=yes

Units are S.I. units (second, meters, Newtons, ...)
If the header above contains a line with 'inDegrees', this indicates whether rotational values are in degrees (yes) or radians (no).

endheader
time	pelvis_tilt	pelvis_list	pelvis_rotation	pelvis_tx	pelvis_ty	pelvis_tz	hip_flexion_r	hip_adduction_r	hip_rotation_r	knee_angle_r	ankle_angle_r	subtalar_angle_r	mtp_angle_r	hip_flexion_l	hip_adduction_l	hip_rotation_l	knee_angle_l	ankle_angle_l	subtalar_angle_l	mtp_angle_l	lumbar_extension	lumbar_bending	lumbar_rotation	arm_flex_r	arm_add_r	arm_rot_r	elbow_flex_r	pro_sup_r	arm_flex_l	arm_add_l	arm_rot_l	elbow_flex_l	pro_sup_l
      2.43333330	     -3.43921857	      1.06580379	     -1.90982720	      0.34397609	      1.59555035	     -0.11558449	     -0.22130572	     -0.83485013	      4.98743101	      0.00000000	      1.82162380	    -10.80113974	      0.00000000	     -0.55911881	      3.27091327	     -8.98733659	      0.46282928	     -4.02224593	    -15.10746131	      0.00000000	     -2.05125993	     -1.40269092	      2.20027389	     -2.19914512	     -6.90275424	     -8.95575133	     26.75371030	     88.76826731	     -3.13287460	     -6.06464316	    -12.24236717	     29.18815147	     92.57786092
      2.45000000	     -3.36029480	      0.99907961	     -1.71585590	      0.34392146	      1.59560735	     -0.11560213	     -0.30573950	     -0.74645268	      4.64262636	      0.00000000	      1.60568213	    -10.86242710	      0.00000000	     -0.71467261	      3.20650079	     -9.01383622	      0.35010518	     -4.13824817	    -14.84550544	      0.00000000	     -2.18111567	     -1.28513644	      2.37043422	     -2.30069554	     -6.95486159	     -9.25651829	     26.43047647	     88.91176241	     -2.63013164	     -6.45104253	    -11.93547408	     30.59899534	     92.89154922
      2.46666670	     -3.31358899	      1.02634611	     -1.65895486	      0.34354642	      1.59519092	     -0.11572888	     -0.34851315	     -0.77782748	      4.67665601	      0.00000000	      1.61018905	    -10.85306291	      0.00000000	     -0.79808681	      3.24092984	     -9.01319824	      0.36061396	     -4.17004478	    -14.80526627	      0.00000000	     -1.97093132	     -1.01731389	      2.29486364	     -2.29815872	     -6.98902134	     -9.27344621	     26.42848718	     88.91545199	     -2.32346031	     -6.74556215	    -11.99200942	     30.78399016	     92.89439363
      2.48333330	     -3.26280370	      0.85072852	     -1.34056013	      0.34388881	      1.59517073	     -0.11596861	     -0.43617275	     -0.56838731	      4.36918660	      0.00000000	      1.58762312	    -10.88951629	      0.00000000	     -0.88723719	      3.03592315	     -8.88325039	      0.31042978	     -3.88848760	    -14.06238601	      0.00000000	     -1.99466109	     -0.86721802	      2.42846037	     -2.58034473	     -6.97207467	    -10.11170096	     26.31134709	     89.04646688	     -2.68860760	     -7.23755541	    -12.30935682	     34.14271616	     93.28554246
      2.50000000	     -3.08440151	      0.76074794	     -1.07332111	      0.35432720	      1.59124509	     -0.11234702	     -0.77278917	     -0.40667474	      4.22740647	      0.00000000	      1.55936768	    -11.03435908	      0.00000000	     -1.28906988	      2.88811570	     -8.76094791	      0.14016841	     -3.71370337	    -13.44723944	      0.00000000	     -1.71724155	     -0.67287443	      2.28592112	     -3.06941582	     -6.84797409	    -11.19044692	     26.59529068	     89.21710938	     -3.49455623	     -7.79610959	    -13.55208773	     37.11146872	     93.71925587
      2.51666670	     -3.27755192	      0.62068465	     -0.75885362	      0.35498666	      1.58714603	     -0.11249641	     -0.76315302	     -0.18759860	      3.91495470	      0.00000000	      1.67994783	    -11.00388145	      0.00000000	     -1.26201031	      2.68761302	     -8.54486105	      0.00000000	     -3.20963897	    -12.88442918	      0.00000000	     -0.87899681	     -0.46266207	      2.30819578	     -3.81504108	     -6.73029122	    -11.92019885	     26.74240968	     89.29202500	     -3.63502856	     -8.60842402	    -14.23943764	     40.16478489	     94.09288295
